<?xml version='1.0' encoding='UTF-8'?>
<svg xmlns="http://www.w3.org/2000/svg" width="805" height="600">
  <rect width="805" height="600" x="0" y="0" fill="#FFFFFF" id="background"/>
  <g id="viz">
    <g transform="translate(0,0)">
      <g transform="translate(25,20)">
        <g>
          <path fill="#9f1c87" d="M0,41.377777777777716C35,41.377777777777716,35,41.377777777777716,70,41.377777777777716C105,41.377777777777716,105,560,140,560C175,560,175,387.02222222222224,209.99999999999997,387.02222222222224C245,387.02222222222224,245,387.02222222222224,280,387.02222222222224C315,387.02222222222224,315,41.377777777777716,350,41.377777777777716C385,41.377777777777716,385,560,419.99999999999994,560C455,560,455,387.02222222222224,490,387.02222222222224C525,387.02222222222224,525,214.35555555555555,560,214.35555555555555C595,214.35555555555555,595,387.02222222222224,630,387.02222222222224C665,387.02222222222224,665,214.35555555555555,700,214.35555555555555C735,214.35555555555555,735,387.02222222222224,770,387.02222222222224L770,560C735,560,735,560,700,560C665,560,665,560,630,560C595,560,595,560,560,560C525,560,525,560,490,560C455,560,455,560,419.99999999999994,560C385,560,385,560,350,560C315,560,315,560,280,560C245,560,245,560,209.99999999999997,560C175,560,175,560,140,560C105,560,105,560,70,560C35,560,35,560,0,560Z">
            <title/>
          </path>
        </g>
        <g id="xAxis" transform="translate(0,560)" fill="none" font-size="10" font-family="sans-serif" text-anchor="middle">
          <path class="domain" stroke="currentColor" d="M0,0H770"/>
          <g class="tick" opacity="1" transform="translate(0,0)">
            <line stroke="currentColor" y2="6"/>
            <text fill="currentColor" y="9" dy="0.71em">8</text>
          </g>
          <g class="tick" opacity="1" transform="translate(70,0)">
            <line stroke="currentColor" y2="6"/>
            <text fill="currentColor" y="9" dy="0.71em">9</text>
          </g>
          <g class="tick" opacity="1" transform="translate(140,0)">
            <line stroke="currentColor" y2="6"/>
            <text fill="currentColor" y="9" dy="0.71em">10</text>
          </g>
          <g class="tick" opacity="1" transform="translate(209.99999999999997,0)">
            <line stroke="currentColor" y2="6"/>
            <text fill="currentColor" y="9" dy="0.71em">11</text>
          </g>
          <g class="tick" opacity="1" transform="translate(280,0)">
            <line stroke="currentColor" y2="6"/>
            <text fill="currentColor" y="9" dy="0.71em">12</text>
          </g>
          <g class="tick" opacity="1" transform="translate(350,0)">
            <line stroke="currentColor" y2="6"/>
            <text fill="currentColor" y="9" dy="0.71em">13</text>
          </g>
          <g class="tick" opacity="1" transform="translate(419.99999999999994,0)">
            <line stroke="currentColor" y2="6"/>
            <text fill="currentColor" y="9" dy="0.71em">14</text>
          </g>
          <g class="tick" opacity="1" transform="translate(490,0)">
            <line stroke="currentColor" y2="6"/>
            <text fill="currentColor" y="9" dy="0.71em">15</text>
          </g>
          <g class="tick" opacity="1" transform="translate(560,0)">
            <line stroke="currentColor" y2="6"/>
            <text fill="currentColor" y="9" dy="0.71em">16</text>
          </g>
          <g class="tick" opacity="1" transform="translate(630,0)">
            <line stroke="currentColor" y2="6"/>
            <text fill="currentColor" y="9" dy="0.71em">17</text>
          </g>
          <g class="tick" opacity="1" transform="translate(700,0)">
            <line stroke="currentColor" y2="6"/>
            <text fill="currentColor" y="9" dy="0.71em">18</text>
          </g>
          <g class="tick" opacity="1" transform="translate(770,0)">
            <line stroke="currentColor" y2="6"/>
            <text fill="currentColor" y="9" dy="0.71em">19</text>
          </g>
        </g>
        <g id="yAxis" fill="none" font-size="10" font-family="sans-serif" text-anchor="end">
          <path class="domain" stroke="currentColor" d="M0,560V0"/>
          <g class="tick" opacity="1" transform="translate(0,560)">
            <line stroke="currentColor" x2="-6"/>
            <text fill="currentColor" x="-9" dy="0.32em">0</text>
          </g>
          <g class="tick" opacity="1" transform="translate(0,497.77777777777777)">
            <line stroke="currentColor" x2="-6"/>
            <text fill="currentColor" x="-9" dy="0.32em">2</text>
          </g>
          <g class="tick" opacity="1" transform="translate(0,435.55555555555554)">
            <line stroke="currentColor" x2="-6"/>
            <text fill="currentColor" x="-9" dy="0.32em">4</text>
          </g>
          <g class="tick" opacity="1" transform="translate(0,373.33333333333337)">
            <line stroke="currentColor" x2="-6"/>
            <text fill="currentColor" x="-9" dy="0.32em">6</text>
          </g>
          <g class="tick" opacity="1" transform="translate(0,311.11111111111114)">
            <line stroke="currentColor" x2="-6"/>
            <text fill="currentColor" x="-9" dy="0.32em">8</text>
          </g>
          <g class="tick" opacity="1" transform="translate(0,248.88888888888889)">
            <line stroke="currentColor" x2="-6"/>
            <text fill="currentColor" x="-9" dy="0.32em">10</text>
          </g>
          <g class="tick" opacity="1" transform="translate(0,186.66666666666669)">
            <line stroke="currentColor" x2="-6"/>
            <text fill="currentColor" x="-9" dy="0.32em">12</text>
          </g>
          <g class="tick" opacity="1" transform="translate(0,124.44444444444444)">
            <line stroke="currentColor" x2="-6"/>
            <text fill="currentColor" x="-9" dy="0.32em">14</text>
          </g>
          <g class="tick" opacity="1" transform="translate(0,62.22222222222225)">
            <line stroke="currentColor" x2="-6"/>
            <text fill="currentColor" x="-9" dy="0.32em">16</text>
          </g>
          <g class="tick" opacity="1" transform="translate(0,0)">
            <line stroke="currentColor" x2="-6"/>
            <text fill="currentColor" x="-9" dy="0.32em">18</text>
          </g>
        </g>
        <text style="font-size:11px;font-family:Inter, Segoe UI, Roboto, Helvetica, Arial, sans-serif;font-weight:500;letter-spacing:0.3px;fill:#4b5563;">Distribución (%)</text><g id="labels">
          <text x="0" y="300.68888888888887" text-anchor="start" alignment-baseline="middle" style="font-family: Arial, sans-serif; font-size: 10px; fill: black; font-weight: bold;"/>
        </g>
      </g>
      <text x="4" y="4" style="font-family: Arial, sans-serif; font-size: 12px; fill: black; font-weight: bold; dominant-baseline: hanging;"/>
    </g>
  </g>
</svg>
