<?xml version="1.0"?>
<svg width="805" height="600" xmlns="http://www.w3.org/2000/svg" xmlns:svg="http://www.w3.org/2000/svg">
 <g class="layer">
  <title>Layer 1</title>
  <rect fill="#FFFFFF" height="600" id="background" width="805" x="0" y="0"/>
  <g id="viz" transform="matrix(1 0 0 1 0 0)">
   <g id="svg_1" transform="matrix(1 0 0 1 0 0)">
    <g id="svg_2" transform="matrix(1 0 0 1 0 0)">
     <g id="svg_3">
      <path d="m25,61.38c35,0 35,0 70,0c35,0 35,518.62 70,518.62c35,0 35,-172.98 70,-172.98c35,0 35,0 70,0c35,0 35,-345.64 70,-345.64c35,0 35,518.62 70,518.62c35,0 35,-172.98 70,-172.98c35,0 35,-172.66 70,-172.66c35,0 35,172.66 70,172.66c35,0 35,-172.66 70,-172.66c35,0 35,172.66 70,172.66l0,172.98c-35,0 -35,0 -70,0c-35,0 -35,0 -70,0c-35,0 -35,0 -70,0c-35,0 -35,0 -70,0c-35,0 -35,0 -70,0c-35,0 -35,0 -70,0c-35,0 -35,0 -70,0c-35,0 -35,0 -70,0c-35,0 -35,0 -70,0c-35,0 -35,0 -70,0c-35,0 -35,0 -70,0l0,-518.62z" fill="#9f1c87" id="svg_4">
       <title/>
      </path>
     </g>
     <g fill="none" font-family="sans-serif" font-size="10" id="xAxis" text-anchor="middle" transform="translate(0 560)">
      <path class="domain" d="m25,20l770,0" id="svg_5" stroke="currentColor"/>
      <g class="tick" id="svg_6" transform="translate(0 0)">
       <line id="svg_7" stroke="currentColor" x1="25" x2="25" y1="20" y2="26"/>
       <text fill="currentColor" id="svg_8" x="25" y="29">8</text>
      </g>
      <g class="tick" id="svg_9" transform="translate(70 0)">
       <line id="svg_10" stroke="currentColor" x1="25" x2="25" y1="20" y2="26"/>
       <text fill="currentColor" id="svg_11" x="25" y="29">9</text>
      </g>
      <g class="tick" id="svg_12" transform="translate(140 0)">
       <line id="svg_13" stroke="currentColor" x1="25" x2="25" y1="20" y2="26"/>
       <text fill="currentColor" id="svg_14" x="25" y="29">10</text>
      </g>
      <g class="tick" id="svg_15" transform="translate(210 0)">
       <line id="svg_16" stroke="currentColor" x1="25" x2="25" y1="20" y2="26"/>
       <text fill="currentColor" id="svg_17" x="25" y="29">11</text>
      </g>
      <g class="tick" id="svg_18" transform="translate(280 0)">
       <line id="svg_19" stroke="currentColor" x1="25" x2="25" y1="20" y2="26"/>
       <text fill="currentColor" id="svg_20" x="25" y="29">12</text>
      </g>
      <g class="tick" id="svg_21" transform="translate(350 0)">
       <line id="svg_22" stroke="currentColor" x1="25" x2="25" y1="20" y2="26"/>
       <text fill="currentColor" id="svg_23" x="25" y="29">13</text>
      </g>
      <g class="tick" id="svg_24" transform="translate(420 0)">
       <line id="svg_25" stroke="currentColor" x1="25" x2="25" y1="20" y2="26"/>
       <text fill="currentColor" id="svg_26" x="25" y="29">14</text>
      </g>
      <g class="tick" id="svg_27" transform="translate(490 0)">
       <line id="svg_28" stroke="currentColor" x1="25" x2="25" y1="20" y2="26"/>
       <text fill="currentColor" id="svg_29" x="25" y="29">15</text>
      </g>
      <g class="tick" id="svg_30" transform="translate(560 0)">
       <line id="svg_31" stroke="currentColor" x1="25" x2="25" y1="20" y2="26"/>
       <text fill="currentColor" id="svg_32" x="25" y="29">16</text>
      </g>
      <g class="tick" id="svg_33" transform="translate(630 0)">
       <line id="svg_34" stroke="currentColor" x1="25" x2="25" y1="20" y2="26"/>
       <text fill="currentColor" id="svg_35" x="25" y="29">17</text>
      </g>
      <g class="tick" id="svg_36" transform="translate(700 0)">
       <line id="svg_37" stroke="currentColor" x1="25" x2="25" y1="20" y2="26"/>
       <text fill="currentColor" id="svg_38" x="25" y="29">18</text>
      </g>
      <g class="tick" id="svg_39" transform="translate(770 0)">
       <line id="svg_40" stroke="currentColor" x1="25" x2="25" y1="20" y2="26"/>
       <text fill="currentColor" id="svg_41" x="25" y="29">19</text>
      </g>
     </g>
     <g fill="none" font-family="sans-serif" font-size="10" id="yAxis" text-anchor="end">
      <path class="domain" d="m25,580l0,-560" id="svg_42" stroke="currentColor"/>
      <g class="tick" id="svg_43" transform="translate(0 560)">
       <line id="svg_44" stroke="currentColor" x1="25" x2="19" y1="20" y2="20"/>
       <text fill="currentColor" id="svg_45" x="16" y="20">0</text>
      </g>
      <g class="tick" id="svg_46" transform="translate(0 497.778)">
       <line id="svg_47" stroke="currentColor" x1="25" x2="19" y1="20" y2="20"/>
       <text fill="currentColor" id="svg_48" x="16" y="20">2</text>
      </g>
      <g class="tick" id="svg_49" transform="translate(0 435.556)">
       <line id="svg_50" stroke="currentColor" x1="25" x2="19" y1="20" y2="20"/>
       <text fill="currentColor" id="svg_51" x="16" y="20">4</text>
      </g>
      <g class="tick" id="svg_52" transform="translate(0 373.333)">
       <line id="svg_53" stroke="currentColor" x1="25" x2="19" y1="20" y2="20"/>
       <text fill="currentColor" id="svg_54" x="16" y="20">6</text>
      </g>
      <g class="tick" id="svg_55" transform="translate(0 311.111)">
       <line id="svg_56" stroke="currentColor" x1="25" x2="19" y1="20" y2="20"/>
       <text fill="currentColor" id="svg_57" x="16" y="20">8</text>
      </g>
      <g class="tick" id="svg_58" transform="translate(0 248.889)">
       <line id="svg_59" stroke="currentColor" x1="25" x2="19" y1="20" y2="20"/>
       <text fill="currentColor" id="svg_60" x="16" y="20">10</text>
      </g>
      <g class="tick" id="svg_61" transform="translate(0 186.667)">
       <line id="svg_62" stroke="currentColor" x1="25" x2="19" y1="20" y2="20"/>
       <text fill="currentColor" id="svg_63" x="16" y="20">12</text>
      </g>
      <g class="tick" id="svg_64" transform="translate(0 124.444)">
       <line id="svg_65" stroke="currentColor" x1="25" x2="19" y1="20" y2="20"/>
       <text fill="currentColor" id="svg_66" x="16" y="20">14</text>
      </g>
      <g class="tick" id="svg_67" transform="translate(0 62.2222)">
       <line id="svg_68" stroke="currentColor" x1="25" x2="19" y1="20" y2="20"/>
       <text fill="currentColor" id="svg_69" x="16" y="20">16</text>
      </g>
      <g class="tick" id="svg_70" transform="translate(0 0)">
       <line id="svg_71" stroke="currentColor" x1="25" x2="19" y1="20" y2="20"/>
       <text fill="currentColor" id="svg_72" x="16" y="20">18</text>
      </g>
     </g>
     <text fill="rgb(123, 123, 123)" font-family="Arial, sans-serif" font-size="12px" font-weight="bold" id="svg_74" style="cursor: move;" text-anchor="start" transform="matrix(1 0 0 1 0 0) matrix(1 0 0 1 0 0)" x="29" y="20">Distribución (%)</text>
     <g id="labels">
      <text fill="black" font-family="Arial, sans-serif" font-size="10px" font-weight="bold" id="svg_75" text-anchor="start" x="25" y="320.69"/>
     </g>
    </g>
    <text fill="black" font-family="Arial, sans-serif" font-size="12px" font-weight="bold" id="svg_76" x="4" y="4"/>
   </g>
  </g>
 </g>
</svg>