<svg xmlns="http://www.w3.org/2000/svg" width="805" height="600"><rect width="805" height="600" x="0" y="0" fill="#FFFFFF" id="background"/><g id="viz" transform="translate(402.5,300)"><g id="cells"><path d="M-26.048704087334837,93.00890440981534L-27.3721734680516,139.27423965885893L58.15852333539783,284.0098915405639L72.12006727780782,280.889116727303L89.61492836873457,275.80638972559456L106.75612027855676,269.6351809075929L123.47599455387116,262.3998452151456L139.70856548949754,254.12893721272036L155.38977054390898,244.85509839558438L170.45772316481717,234.6149283687348L184.85295702711994,223.44884040497897L198.51866071931968,211.40090195220935L211.40090195220932,198.5186607193197L223.44884040497888,184.85295702712003L234.61492836873484,170.4577231648171L244.85509839558438,155.389770543909L254.12893721272036,139.70856548949752L261.99410760571874,124.27229944861092L74.11218139345294,33.64363694615889z" fill="rgb(126, 184, 218)" stroke="#FFFFFF" stroke-width="2" id="13"/><path d="M74.11218139345294,33.64363694615889L261.99410760571874,124.27229944861092L262.3998452151456,123.47599455387126L269.6351809075928,106.7561202785569L275.80638972559456,89.61492836873464L280.8891167273029,72.12006727780805L284.8633027113198,54.34058122985988L287.71326338119866,36.34663773364828L289.4277512441987,18.20925066350097L290,-7.585043704239069e-13L289.42775124419876,-18.209250663500427L287.7132633811986,-36.346637733648144L284.8633027113198,-54.340581229859865L280.8891167273029,-72.12006727780827L275.80638972559456,-89.61492836873464L269.63518090759277,-106.75612027855696L262.39984521514566,-123.47599455387098L254.12893721272042,-139.70856548949737L246.70699086666033,-152.25839138687607L81.48113956545227,-110.85386839032543L77.31776647804274,-107.54836852353756z" fill="rgb(229, 239, 249)" stroke="#FFFFFF" stroke-width="2" id="9"/><path d="M-254.12893721272073,-139.70856548949678L-262.39984521514566,-123.47599455387086L-269.63518090759305,-106.75612027855634L-275.8063897255944,-89.61492836873518L-280.889116727303,-72.1200672778078L-284.8633027113196,-54.34058122986048L-287.7132633811986,-36.34663773364803L-289.4277512441987,-18.209250663500598L-290,2.0250467969162855e-13L-289.4277512441987,18.209250663500825L-287.71326338119854,36.34663773364833L-284.86330271131965,54.340581229860305L-280.889116727303,72.12006727780779L-275.8063897255946,89.61492836873445L-269.635180907593,106.75612027855652L-267.9193896884696,110.72107984447935L-76.18705686672746,54.47553551434707L-79.90207306091013,-109.79906392811935L-245.45611647530677,-154.37350447164118z" fill="rgb(247, 251, 255)" stroke="#FFFFFF" stroke-width="2" id="8"/><path d="M-76.18705686672746,54.47553551434707L-26.048704087334837,93.00890440981534L74.11218139345294,33.64363694615889L77.31776647804274,-107.54836852353756L-14.490712962755579,-135.51580246006912L-62.890961859238715,-125.55031003059545L-79.90207306091013,-109.79906392811935z" fill="rgb(10, 72, 141)" stroke="#FFFFFF" stroke-width="2" id="18"/><path d="M-76.18705686672746,54.47553551434707L-267.91938968846955,110.72107984447939L-262.39984521514543,123.47599455387159L-254.12893721272036,139.70856548949754L-244.8550983955842,155.38977054390926L-234.6149283687347,170.45772316481734L-223.4488404049787,184.8529570271201L-211.4009019522092,198.51866071931977L-198.5186607193197,211.40090195220927L-184.85295702712003,223.44884040497888L-170.45772316481708,234.61492836873484L-155.38977054390915,244.85509839558426L-139.70856548949752,254.1289372127204L-128.5163312550178,259.8316653918906L-27.3721734680516,139.27423965885893L-26.048704087334837,93.00890440981534z" fill="rgb(40, 119, 183)" stroke="#FFFFFF" stroke-width="2" id="16"/><path d="M-123.47599455387086,-262.39984521514583L-139.70856548949715,-254.12893721272056L-155.38977054390907,-244.85509839558438L-170.45772316481717,-234.61492836873487L-184.85295702711977,-223.44884040497905L-198.51866071931985,-211.40090195220918L-211.40090195220932,-198.5186607193197L-223.44884040497888,-184.85295702712006L-234.61492836873478,-170.45772316481722L-244.8550983955845,-155.38977054390887L-245.45611647530683,-154.37350447164118L-79.90207306091013,-109.79906392811935L-62.890961859238715,-125.55031003059545L-117.88675120830348,-264.8185267916971z" fill="rgb(20, 96, 167)" stroke="#FFFFFF" stroke-width="2" id="17"/><path d="M244.85509839558438,-155.38977054390904L234.61492836873475,-170.4577231648173L223.44884040497902,-184.85295702711988L211.40090195220915,-198.51866071931988L198.5186607193197,-211.40090195220932L184.85295702711986,-223.44884040497897L170.4577231648172,-234.61492836873475L155.38977054390875,-244.85509839558455L139.70856548949718,-254.12893721272061L123.47599455387062,-262.39984521514583L106.75612027855695,-269.6351809075928L105.6472796748657,-270.0343880891737L81.48113956545227,-110.85386839032543L246.70699086666025,-152.2583913868762z" fill="rgb(64, 142, 196)" stroke="#FFFFFF" stroke-width="2" id="15"/><path d="M18.20925066350142,-289.4277512441987L2.5224267119483557e-13,-290L-18.20925066350098,-289.4277512441987L-36.34663773364813,-287.7132633811986L-54.34058122985991,-284.8633027113198L-72.12006727780789,-280.889116727303L-89.61492836873455,-275.80638972559456L-106.75612027855703,-269.6351809075927L-117.88675120830347,-264.8185267916971L-62.890961859238715,-125.55031003059545L-14.490712962755579,-135.51580246006912L20.2880445543625,-289.23124736622685z" fill="rgb(160, 202, 227)" stroke="#FFFFFF" stroke-width="2" id="12"/><path d="M77.31776647804274,-107.54836852353756L81.48113956545227,-110.85386839032543L105.6472796748657,-270.0343880891737L89.61492836873465,-275.8063897255945L72.12006727780775,-280.889116727303L54.34058122986035,-284.8633027113197L36.34663773364814,-287.7132633811986L20.288044554362514,-289.2312473662268L-14.490712962755579,-135.51580246006912z" fill="rgb(189, 216, 236)" stroke="#FFFFFF" stroke-width="2" id="11"/><path d="M-123.4759945538717,262.3998452151454L-106.75612027855641,269.635180907593L-89.61492836873458,275.80638972559456L-72.12006727780802,280.8891167273029L-54.34058122985998,284.8633027113197L-36.34663773364852,287.71326338119854L-18.20925066350128,289.4277512441987L-1.6342482922482304e-13,290L18.209250663501013,289.4277512441987L36.34663773364825,287.71326338119866L54.34058122986043,284.8633027113196L58.15852333539789,284.0098915405639L-27.3721734680516,139.27423965885893L-128.51633125501786,259.8316653918906z" fill="rgb(8, 48, 107)" stroke="#FFFFFF" stroke-width="2" id="19"/><path d="M289.4277512441987,-18.209250663500825L287.71326338119854,-36.346637733648365L284.86330271131976,-54.34058122986019L280.88911672730296,-72.12006727780805L275.8063897255945,-89.61492836873482L269.6351809075928,-106.75612027855685L262.39984521514566,-123.47599455387093L254.12893721272042,-139.7085654894974L244.85509839558446,-155.38977054390892L234.61492836873478,-170.45772316481725L223.44884040497894,-184.85295702712L211.40090195220927,-198.51866071931977L198.5186607193197,-211.40090195220932L184.85295702711988,-223.44884040497894L170.45772316481714,-234.6149283687348L155.38977054390887,-244.8550983955845L139.70856548949735,-254.12893721272053L123.4759945538708,-262.3998452151458L106.75612027855674,-269.6351809075929L89.6149283687347,-275.8063897255945L72.1200672778079,-280.88911672730296L54.340581229860064,-284.86330271131976L36.34663773364822,-287.7132633811986L18.20925066350071,-289.4277512441987L-5.684341886080802e-14,-290L-18.209250663500825,-289.4277512441987L-36.34663773364835,-287.71326338119854L-54.34058122986012,-284.86330271131976L-72.12006727780805,-280.88911672730296L-89.61492836873477,-275.8063897255945L-106.75612027855679,-269.6351809075928L-123.47599455387093,-262.3998452151458L-139.7085654894974,-254.12893721272042L-155.38977054390892,-244.85509839558446L-170.45772316481725,-234.61492836873478L-184.85295702711994,-223.4488404049789L-198.51866071931977,-211.40090195220927L-211.40090195220932,-198.5186607193197L-223.4488404049789,-184.85295702712L-234.6149283687348,-170.45772316481717L-244.85509839558443,-155.38977054390898L-254.12893721272044,-139.70856548949735L-262.39984521514566,-123.47599455387093L-269.6351809075929,-106.75612027855674L-275.8063897255945,-89.61492836873482L-280.88911672730296,-72.12006727780796L-284.86330271131965,-54.340581229860206L-287.7132633811986,-36.34663773364822L-289.4277512441987,-18.20925066350088L-290,5.684341886080802e-14L-289.4277512441987,18.20925066350088L-287.71326338119854,36.34663773364831L-284.86330271131965,54.34058122986028L-280.88911672730296,72.1200672778079L-275.8063897255945,89.61492836873475L-269.63518090759294,106.75612027855665L-262.39984521514566,123.47599455387115L-254.1289372127204,139.70856548949752L-244.8550983955843,155.38977054390915L-234.61492836873478,170.45772316481725L-223.44884040497882,184.85295702712L-211.40090195220927,198.5186607193197L-198.5186607193197,211.40090195220927L-184.85295702712,223.4488404049789L-170.45772316481717,234.61492836873478L-155.38977054390912,244.8550983955843L-139.70856548949746,254.12893721272042L-123.47599455387108,262.39984521514566L-106.7561202785566,269.63518090759294L-89.61492836873474,275.8063897255945L-72.12006727780783,280.88911672730296L-54.340581229860206,284.86330271131965L-36.34663773364824,287.71326338119854L-18.20925066350088,289.4277512441987L0,290L18.20925066350088,289.4277512441987L36.34663773364822,287.71326338119866L54.340581229860206,284.86330271131965L72.12006727780796,280.88911672730296L89.61492836873475,275.8063897255945L106.75612027855665,269.63518090759294L123.47599455387108,262.39984521514566L139.7085654894974,254.12893721272044L155.38977054390898,244.85509839558438L170.4577231648172,234.61492836873478L184.85295702712,223.4488404049789L198.5186607193197,211.40090195220932L211.40090195220932,198.5186607193197L223.4488404049789,184.85295702712L234.61492836873478,170.4577231648172L244.85509839558438,155.38977054390898L254.12893721272042,139.7085654894974L262.39984521514566,123.47599455387108L269.63518090759294,106.7561202785566L275.8063897255945,89.61492836873475L280.88911672730296,72.1200672778079L284.86330271131976,54.34058122986012L287.71326338119866,36.34663773364822L289.4277512441987,18.20925066350088L290,0z" fill="none" stroke="#FFFFFF" stroke-width="4"/></g><g id="labels"><text text-anchor="middle" dominant-baseline="text-before-edge" transform="translate(104.01128420077117,148.9297976965999)"><tspan x="3" y="0.2em" style="font-family: Arial, sans-serif; font-size: 10px; fill: black; font-weight: bold;">13</tspan></text><text text-anchor="middle" dominant-baseline="text-before-edge" transform="translate(189.02483188190482,-27.311455913840962)"><tspan x="3" y="0.2em" style="font-family: Arial, sans-serif; font-size: 10px; fill: black; font-weight: bold;">9</tspan></text><text text-anchor="middle" dominant-baseline="text-before-edge" transform="translate(-186.28821754006745,-27.527544335742295)"><tspan x="3" y="0.2em" style="font-family: Arial, sans-serif; font-size: 10px; fill: black; font-weight: bold;">8</tspan></text><text text-anchor="middle" dominant-baseline="text-before-edge" transform="translate(-3.031147045664538,-31.671842887653344)"><tspan x="3" y="0.2em" style="font-family: Arial, sans-serif; font-size: 10px; fill: black; font-weight: bold;">18</tspan></text><text text-anchor="middle" dominant-baseline="text-before-edge" transform="translate(-136.54231896335276,142.04850468326563)"><tspan x="3" y="0.2em" style="font-family: Arial, sans-serif; font-size: 10px; fill: black; font-weight: bold;">16</tspan></text><text text-anchor="middle" dominant-baseline="text-before-edge" transform="translate(-144.1406349917392,-184.06798827479463)"><tspan x="3" y="0.2em" style="font-family: Arial, sans-serif; font-size: 10px; fill: black; font-weight: bold;">17</tspan></text><text text-anchor="middle" dominant-baseline="text-before-edge" transform="translate(148.69513566268813,-188.24818234574082)"><tspan x="3" y="0.2em" style="font-family: Arial, sans-serif; font-size: 10px; fill: black; font-weight: bold;">15</tspan></text><text text-anchor="middle" dominant-baseline="text-before-edge" transform="translate(-42.66021984854773,-224.14170835296682)"><tspan x="3" y="0.2em" style="font-family: Arial, sans-serif; font-size: 10px; fill: black; font-weight: bold;">12</tspan></text><text text-anchor="middle" dominant-baseline="text-before-edge" transform="translate(49.26478476606009,-203.34329445771266)"><tspan x="3" y="0.2em" style="font-family: Arial, sans-serif; font-size: 10px; fill: black; font-weight: bold;">11</tspan></text><text text-anchor="middle" dominant-baseline="text-before-edge" transform="translate(-32.31580615729346,229.4915036751803)"><tspan x="3" y="0.2em" style="font-family: Arial, sans-serif; font-size: 10px; fill: black; font-weight: bold;">19</tspan></text></g></g></svg>