<svg xmlns="http://www.w3.org/2000/svg" width="805" height="600"><rect width="805" height="600" x="0" y="0" fill="#FFFFFF" id="background"/><g id="viz" transform="translate(402.5,300)"><g id="cells"><path d="M-34.76431738042247,65.02704056547609L-28.559106739283553,288.44940179633727L-18.209250663500946,289.4277512441987L-3.907985046680551e-14,290L18.209250663500907,289.4277512441987L36.34663773364818,287.71326338119866L54.340581229860305,284.86330271131965L72.12006727780765,280.8891167273031L89.61492836873448,275.8063897255946L106.75612027855642,269.63518090759305L123.47599455387088,262.3998452151458L139.7085654894973,254.12893721272053L155.3897705439088,244.8550983955845L170.45772316481722,234.61492836873475L184.85295702712006,223.44884040497885L198.51866071931974,211.4009019522093L211.40090195220932,198.5186607193197L223.44884040497897,184.85295702711994L234.6149283687347,170.4577231648173L244.85509839558438,155.38977054390898L254.12893721272042,139.70856548949743L262.3998452151456,123.47599455387126L263.1409462558683,121.7634110950107L90.50876158953794,11.64924281462716z" fill="rgb(109, 174, 213)" stroke="#FFFFFF" stroke-width="2" id="13"/><path d="M269.6351809075929,106.75612027855674L275.80638972559456,89.61492836873458L280.88911672730296,72.12006727780786L284.86330271131976,54.340581229859964L287.7132633811987,36.34663773364784L289.4277512441987,18.209250663500818L289.99999999999994,1.2434497875801753e-12L289.42775124419865,-18.209250663501194L287.7132633811985,-36.34663773364864L284.8633027113197,-54.34058122986039L280.8891167273029,-72.12006727780823L275.8063897255945,-89.6149283687349L269.63518090759294,-106.75612027855658L262.39984521514566,-123.4759945538709L254.12893721272033,-139.70856548949752L244.85509839558446,-155.38977054390892L241.95178210392507,-159.66187073477786L107.17024479603705,-104.54024767058267L90.50876158953794,11.64924281462716L263.1409462558683,121.76341109501072z" fill="rgb(227, 238, 249)" stroke="#FFFFFF" stroke-width="2" id="9"/><path d="M-254.1289372127205,-139.70856548949723L-262.39984521514566,-123.47599455387093L-269.6351809075929,-106.75612027855672L-275.8063897255945,-89.61492836873474L-280.889116727303,-72.12006727780764L-284.8633027113197,-54.340581229859986L-287.71326338119854,-36.346637733648535L-289.4277512441987,-18.209250663500494L-290,1.8118839761882555e-13L-289.4277512441987,18.20925066350081L-287.71326338119854,36.34663773364846L-284.8633027113197,54.34058122986001L-280.8891167273029,72.12006727780805L-275.8063897255945,89.61492836873481L-269.635180907593,106.75612027855651L-264.78003160151894,117.97570834413547L-84.45718218741344,37.20628304411099L-111.01968483850743,-99.48552936866376L-248.85447654413994,-148.62719141413712z" fill="rgb(8, 48, 107)" stroke="#FFFFFF" stroke-width="2" id="18"/><path d="M-84.45718218741344,37.20628304411099L-34.76431738042247,65.02704056547609L90.50876158953794,11.64924281462716L107.17024479603705,-104.54024767058267L53.22752287255716,-161.49484397728017L-55.78513063319399,-161.40372425279577L-111.01968483850743,-99.48552936866376z" fill="rgb(24, 100, 170)" stroke="#FFFFFF" stroke-width="2" id="16"/><path d="M-84.45718218741344,37.20628304411099L-264.780031601519,117.97570834413538L-262.3998452151459,123.47599455387065L-254.1289372127202,139.70856548949786L-244.85509839558432,155.3897705439091L-234.6149283687347,170.45772316481734L-223.44884040497868,184.85295702712017L-211.40090195220932,198.51866071931966L-198.5186607193197,211.40090195220927L-184.85295702712,223.4488404049789L-170.4577231648172,234.61492836873475L-155.38977054390904,244.85509839558435L-139.7085654894975,254.12893721272042L-123.47599455387127,262.3998452151456L-106.75612027855692,269.6351809075928L-89.61492836873481,275.8063897255945L-72.120067277808,280.8891167273029L-54.34058122985991,284.8633027113197L-36.34663773364842,287.71326338119854L-28.559106739283553,288.44940179633727L-34.76431738042247,65.02704056547609z" fill="rgb(247, 251, 255)" stroke="#FFFFFF" stroke-width="2" id="8"/><path d="M-106.75612027855651,-269.63518090759294L-123.47599455387102,-262.3998452151457L-139.70856548949754,-254.12893721272033L-155.38977054390892,-244.85509839558446L-170.45772316481722,-234.61492836873478L-184.85295702712014,-223.44884040497874L-198.51866071931974,-211.4009019522093L-211.40090195220932,-198.5186607193197L-223.4488404049789,-184.85295702712003L-234.6149283687347,-170.4577231648173L-244.8550983955844,-155.38977054390904L-248.8544765441399,-148.62719141413714L-111.01968483850743,-99.48552936866376L-55.78513063319399,-161.40372425279577L-95.51857305881006,-273.6809468531613z" fill="rgb(10, 74, 144)" stroke="#FFFFFF" stroke-width="2" id="17"/><path d="M107.17024479603705,-104.54024767058267L241.9517821039251,-159.66187073477786L234.61492836873495,-170.45772316481703L223.4488404049789,-184.85295702712006L211.40090195220944,-198.5186607193196L198.5186607193197,-211.40090195220932L184.85295702711988,-223.44884040497894L170.45772316481708,-234.61492836873484L155.3897705439088,-244.85509839558452L139.7085654894973,-254.12893721272056L123.4759945538708,-262.3998452151458L106.75612027855671,-269.6351809075929L89.75126589236132,-275.7573051967907L53.22752287255716,-161.49484397728017z" fill="rgb(47, 126, 188)" stroke="#FFFFFF" stroke-width="2" id="15"/><path d="M53.22752287255716,-161.49484397728017L89.75126589236132,-275.7573051967907L89.61492836873464,-275.8063897255945L72.12006727780772,-280.889116727303L54.34058122986024,-284.86330271131976L36.346637733648606,-287.71326338119854L18.209250663500438,-289.4277512441987L-1.7763568394002505e-13,-290L-18.209250663500782,-289.4277512441987L-36.34663773364838,-287.71326338119854L-54.34058122986016,-284.86330271131976L-72.12006727780808,-280.88911672730296L-89.61492836873462,-275.80638972559456L-95.51857305881009,-273.68094685316123L-55.78513063319399,-161.40372425279577z" fill="rgb(147, 195, 223)" stroke="#FFFFFF" stroke-width="2" id="12"/><path d="M289.4277512441987,-18.209250663500825L287.71326338119854,-36.346637733648365L284.86330271131976,-54.34058122986019L280.88911672730296,-72.12006727780805L275.8063897255945,-89.61492836873482L269.6351809075928,-106.75612027855685L262.39984521514566,-123.47599455387093L254.12893721272042,-139.7085654894974L244.85509839558446,-155.38977054390892L234.61492836873478,-170.45772316481725L223.44884040497894,-184.85295702712L211.40090195220927,-198.51866071931977L198.5186607193197,-211.40090195220932L184.85295702711988,-223.44884040497894L170.45772316481714,-234.6149283687348L155.38977054390887,-244.8550983955845L139.70856548949735,-254.12893721272053L123.4759945538708,-262.3998452151458L106.75612027855674,-269.6351809075929L89.6149283687347,-275.8063897255945L72.1200672778079,-280.88911672730296L54.340581229860064,-284.86330271131976L36.34663773364822,-287.7132633811986L18.20925066350071,-289.4277512441987L-5.684341886080802e-14,-290L-18.209250663500825,-289.4277512441987L-36.34663773364835,-287.71326338119854L-54.34058122986012,-284.86330271131976L-72.12006727780805,-280.88911672730296L-89.61492836873477,-275.8063897255945L-106.75612027855679,-269.6351809075928L-123.47599455387093,-262.3998452151458L-139.7085654894974,-254.12893721272042L-155.38977054390892,-244.85509839558446L-170.45772316481725,-234.61492836873478L-184.85295702711994,-223.4488404049789L-198.51866071931977,-211.40090195220927L-211.40090195220932,-198.5186607193197L-223.4488404049789,-184.85295702712L-234.6149283687348,-170.45772316481717L-244.85509839558443,-155.38977054390898L-254.12893721272044,-139.70856548949735L-262.39984521514566,-123.47599455387093L-269.6351809075929,-106.75612027855674L-275.8063897255945,-89.61492836873482L-280.88911672730296,-72.12006727780796L-284.86330271131965,-54.340581229860206L-287.7132633811986,-36.34663773364822L-289.4277512441987,-18.20925066350088L-290,5.684341886080802e-14L-289.4277512441987,18.20925066350088L-287.71326338119854,36.34663773364831L-284.86330271131965,54.34058122986028L-280.88911672730296,72.1200672778079L-275.8063897255945,89.61492836873475L-269.63518090759294,106.75612027855665L-262.39984521514566,123.47599455387115L-254.1289372127204,139.70856548949752L-244.8550983955843,155.38977054390915L-234.61492836873478,170.45772316481725L-223.44884040497882,184.85295702712L-211.40090195220927,198.5186607193197L-198.5186607193197,211.40090195220927L-184.85295702712,223.4488404049789L-170.45772316481717,234.61492836873478L-155.38977054390912,244.8550983955843L-139.70856548949746,254.12893721272042L-123.47599455387108,262.39984521514566L-106.7561202785566,269.63518090759294L-89.61492836873474,275.8063897255945L-72.12006727780783,280.88911672730296L-54.340581229860206,284.86330271131965L-36.34663773364824,287.71326338119854L-18.20925066350088,289.4277512441987L0,290L18.20925066350088,289.4277512441987L36.34663773364822,287.71326338119866L54.340581229860206,284.86330271131965L72.12006727780796,280.88911672730296L89.61492836873475,275.8063897255945L106.75612027855665,269.63518090759294L123.47599455387108,262.39984521514566L139.7085654894974,254.12893721272044L155.38977054390898,244.85509839558438L170.4577231648172,234.61492836873478L184.85295702712,223.4488404049789L198.5186607193197,211.40090195220932L211.40090195220932,198.5186607193197L223.4488404049789,184.85295702712L234.61492836873478,170.4577231648172L244.85509839558438,155.38977054390898L254.12893721272042,139.7085654894974L262.39984521514566,123.47599455387108L269.63518090759294,106.7561202785566L275.8063897255945,89.61492836873475L280.88911672730296,72.1200672778079L284.86330271131976,54.34058122986012L287.71326338119866,36.34663773364822L289.4277512441987,18.20925066350088L290,0z" fill="none" stroke="#FFFFFF" stroke-width="4"/></g><g id="labels"><text text-anchor="middle" dominant-baseline="text-before-edge" transform="translate(88.69407585895623,149.69755445114552)"><tspan x="3" y="0.2em" style="font-family: Arial, sans-serif; font-size: 10px; fill: black; font-weight: bold;">13</tspan></text><text text-anchor="middle" dominant-baseline="text-before-edge" transform="translate(202.73065394204207,-29.084013023698)"><tspan x="3" y="0.2em" style="font-family: Arial, sans-serif; font-size: 10px; fill: black; font-weight: bold;">9</tspan></text><text text-anchor="middle" dominant-baseline="text-before-edge" transform="translate(-197.8985506584952,-19.65234437461954)"><tspan x="3" y="0.2em" style="font-family: Arial, sans-serif; font-size: 10px; fill: black; font-weight: bold;">18</tspan></text><text text-anchor="middle" dominant-baseline="text-before-edge" transform="translate(0.1381181547683097,-58.135626200463015)"><tspan x="3" y="0.2em" style="font-family: Arial, sans-serif; font-size: 10px; fill: black; font-weight: bold;">16</tspan></text><text text-anchor="middle" dominant-baseline="text-before-edge" transform="translate(-119.45467687138762,155.47856423130582)"><tspan x="3" y="0.2em" style="font-family: Arial, sans-serif; font-size: 10px; fill: black; font-weight: bold;">8</tspan></text><text text-anchor="middle" dominant-baseline="text-before-edge" transform="translate(-139.70300961893565,-182.88187189775624)"><tspan x="3" y="0.2em" style="font-family: Arial, sans-serif; font-size: 10px; fill: black; font-weight: bold;">17</tspan></text><text text-anchor="middle" dominant-baseline="text-before-edge" transform="translate(137.60325749461487,-188.33133061123732)"><tspan x="3" y="0.2em" style="font-family: Arial, sans-serif; font-size: 10px; fill: black; font-weight: bold;">15</tspan></text><text text-anchor="middle" dominant-baseline="text-before-edge" transform="translate(-0.007474824111598055,-232.31829684961218)"><tspan x="3" y="0.2em" style="font-family: Arial, sans-serif; font-size: 10px; fill: black; font-weight: bold;">12</tspan></text></g></g></svg>