<svg xmlns="http://www.w3.org/2000/svg" width="805" height="600"><rect width="805" height="600" x="0" y="0" fill="#FFFFFF" id="background"/><g id="viz" transform="translate(402.5,300)"><g id="cells"><path d="M-16.87826682148417,9.542141145780713L-82.73869732205043,115.30571190049977L-75.96071913198345,179.9843806234194L5.759864234851136,289.818988974182L18.20925066350057,289.42775124419876L36.346637733647846,287.7132633811987L54.34058122986023,284.86330271131965L72.12006727780786,280.88911672730296L89.61492836873516,275.80638972559433L106.75612027855692,269.6351809075928L123.47599455387103,262.39984521514566L139.70856548949763,254.1289372127203L155.38977054390907,244.85509839558432L170.45772316481722,234.61492836873475L184.85295702712006,223.44884040497885L198.51866071931974,211.4009019522093L211.40090195220927,198.51866071931977L223.44884040497894,184.85295702711994L234.61492836873484,170.4577231648171L244.85509839558438,155.38977054390898L248.0381302624934,150.0075575915448L223.34117037899355,65.25130534957626L59.50766018869547,-22.52728245770662z" fill="rgb(189, 216, 236)" stroke="#FFFFFF" stroke-width="2" id="11"/><path d="M288.0289349448886,33.007181408968115L289.4277512441987,18.209250663501006L290,-7.567280135845067e-13L289.42775124419876,-18.20925066350042L287.7132633811986,-36.34663773364813L284.8633027113198,-54.34058122985989L280.8891167273029,-72.12006727780818L275.8063897255944,-89.61492836873511L269.63518090759277,-106.75612027855698L262.39984521514566,-123.47599455387098L254.12893721272053,-139.7085654894972L244.85509839558443,-155.38977054390895L234.6149283687347,-170.45772316481737L223.448840404979,-184.8529570271199L211.40090195220918,-198.51866071931985L206.9079605030887,-203.01160216844033L67.51663509140553,-122.98582067287113L59.50766018869547,-22.52728245770662L223.34117037899355,65.25130534957626z" fill="rgb(160, 202, 227)" stroke="#FFFFFF" stroke-width="2" id="12"/><path d="M-112.15697312404383,-70.67534447454653L-272.7300926684019,-98.15967215947163L-275.8063897255944,-89.61492836873519L-280.88911672730296,-72.12006727780786L-284.8633027113197,-54.34058122985988L-287.7132633811986,-36.34663773364833L-289.4277512441987,-18.20925066350104L-290,-7.105427357601002e-15L-289.4277512441987,18.20925066350091L-287.71326338119854,36.34663773364824L-284.86330271131965,54.34058122986035L-280.889116727303,72.12006727780778L-275.8063897255946,89.61492836873451L-269.63518090759305,106.75612027855642L-262.39984521514566,123.47599455387119L-261.10304842344493,126.02110156076836L-122.48073323991657,87.84559032077308L-90.75700595455494,-26.35018212189507z" fill="rgb(8, 48, 107)" stroke="#FFFFFF" stroke-width="2" id="19"/><path d="M-112.15697312404383,-70.67534447454653L-90.75700595455494,-26.35018212189507L-16.87826682148417,9.542141145780713L59.50766018869547,-22.52728245770662L67.51663509140553,-122.98582067287113L21.745102050893994,-167.58976165873352L3.342475489918962,-171.44285764329294L-87.61632370027587,-132.73440188336411z" fill="rgb(20, 96, 167)" stroke="#FFFFFF" stroke-width="2" id="17"/><path d="M-122.48073323991657,87.84559032077308L-261.103048423445,126.0211015607683L-254.12893721272056,139.70856548949723L-244.85509839558432,155.38977054390912L-234.61492836873487,170.45772316481714L-223.4488404049788,184.85295702712006L-211.40090195220938,198.5186607193196L-198.5186607193197,211.40090195220927L-184.85295702712003,223.44884040497888L-170.45772316481714,234.61492836873478L-155.3897705439092,244.85509839558424L-145.70961695708803,250.579925268124L-75.96071913198345,179.9843806234194L-82.73869732205043,115.30571190049977z" fill="rgb(211, 228, 243)" stroke="#FFFFFF" stroke-width="2" id="10"/><path d="M-170.45772316481757,-234.61492836873455L-184.85295702711983,-223.448840404979L-198.51866071931988,-211.40090195220915L-211.40090195220935,-198.51866071931968L-223.44884040497888,-184.85295702712003L-234.6149283687348,-170.45772316481714L-244.85509839558455,-155.38977054390878L-254.12893721272044,-139.70856548949735L-262.39984521514566,-123.47599455387089L-269.635180907593,-106.7561202785564L-272.7300926684018,-98.15967215947165L-112.15697312404383,-70.67534447454653L-87.61632370027587,-132.73440188336411L-163.19837628952337,-239.54837541075287z" fill="rgb(10, 72, 141)" stroke="#FFFFFF" stroke-width="2" id="18"/><path d="M198.51866071931997,-211.4009019522091L184.85295702711986,-223.44884040497897L170.45772316481722,-234.61492836873475L155.3897705439089,-244.85509839558446L139.7085654894972,-254.1289372127206L123.4759945538706,-262.3998452151459L106.75612027855685,-269.6351809075928L89.61492836873481,-275.80638972559444L75.52763834749224,-279.89912581533696L21.745102050893994,-167.58976165873352L67.51663509140553,-122.98582067287113L206.90796050308876,-203.0116021684403z" fill="rgb(229, 239, 249)" stroke="#FFFFFF" stroke-width="2" id="9"/><path d="M3.342475489918962,-171.44285764329294L-34.50159841658773,-287.88767094628076L-36.34663773364866,-287.7132633811985L-54.34058122986025,-284.8633027113197L-72.12006727780839,-280.88911672730285L-89.61492836873491,-275.80638972559444L-106.75612027855684,-269.6351809075928L-123.47599455387073,-262.3998452151459L-139.7085654894973,-254.1289372127205L-155.38977054390892,-244.85509839558446L-163.19837628952342,-239.54837541075287L-87.61632370027587,-132.73440188336411z" fill="rgb(40, 119, 183)" stroke="#FFFFFF" stroke-width="2" id="16"/><path d="M72.12006727780745,-280.8891167273031L54.3405812298602,-284.86330271131976L36.346637733648464,-287.7132633811986L18.209250663500963,-289.4277512441987L-1.1013412404281553e-13,-290L-18.209250663500857,-289.4277512441987L-34.50159841658775,-287.88767094628076L3.342475489918962,-171.44285764329294L21.745102050893994,-167.58976165873352L75.52763834749233,-279.8991258153369z" fill="rgb(247, 251, 255)" stroke="#FFFFFF" stroke-width="2" id="8"/><path d="M-145.70961695708797,250.57992526812401L-139.70856548949757,254.12893721272036L-123.47599455387109,262.39984521514566L-106.75612027855665,269.63518090759294L-89.61492836873502,275.80638972559444L-72.12006727780818,280.8891167273029L-54.34058122986046,284.8633027113196L-36.346637733648095,287.71326338119854L-18.209250663500647,289.4277512441987L-3.552713678800501e-14,290L5.759864234851146,289.818988974182L-75.96071913198345,179.9843806234194z" fill="rgb(126, 184, 218)" stroke="#FFFFFF" stroke-width="2" id="13"/><path d="M-90.75700595455494,-26.35018212189507L-122.48073323991657,87.84559032077308L-82.73869732205043,115.30571190049977L-16.87826682148417,9.542141145780713z" fill="rgb(64, 142, 196)" stroke="#FFFFFF" stroke-width="2" id="15"/><path d="M254.12893721272047,139.7085654894973L262.39984521514566,123.47599455387105L269.63518090759294,106.75612027855652L275.8063897255946,89.61492836873441L280.88911672730296,72.12006727780792L284.86330271131976,54.340581229860085L287.71326338119866,36.34663773364798L288.0289349448886,33.00718140896812L223.34117037899355,65.25130534957626L248.03813026249344,150.00755759154475z" fill="rgb(93, 164, 208)" stroke="#FFFFFF" stroke-width="2" id="14"/><path d="M289.4277512441987,-18.209250663500825L287.71326338119854,-36.346637733648365L284.86330271131976,-54.34058122986019L280.88911672730296,-72.12006727780805L275.8063897255945,-89.61492836873482L269.6351809075928,-106.75612027855685L262.39984521514566,-123.47599455387093L254.12893721272042,-139.7085654894974L244.85509839558446,-155.38977054390892L234.61492836873478,-170.45772316481725L223.44884040497894,-184.85295702712L211.40090195220927,-198.51866071931977L198.5186607193197,-211.40090195220932L184.85295702711988,-223.44884040497894L170.45772316481714,-234.6149283687348L155.38977054390887,-244.8550983955845L139.70856548949735,-254.12893721272053L123.4759945538708,-262.3998452151458L106.75612027855674,-269.6351809075929L89.6149283687347,-275.8063897255945L72.1200672778079,-280.88911672730296L54.340581229860064,-284.86330271131976L36.34663773364822,-287.7132633811986L18.20925066350071,-289.4277512441987L-5.684341886080802e-14,-290L-18.209250663500825,-289.4277512441987L-36.34663773364835,-287.71326338119854L-54.34058122986012,-284.86330271131976L-72.12006727780805,-280.88911672730296L-89.61492836873477,-275.8063897255945L-106.75612027855679,-269.6351809075928L-123.47599455387093,-262.3998452151458L-139.7085654894974,-254.12893721272042L-155.38977054390892,-244.85509839558446L-170.45772316481725,-234.61492836873478L-184.85295702711994,-223.4488404049789L-198.51866071931977,-211.40090195220927L-211.40090195220932,-198.5186607193197L-223.4488404049789,-184.85295702712L-234.6149283687348,-170.45772316481717L-244.85509839558443,-155.38977054390898L-254.12893721272044,-139.70856548949735L-262.39984521514566,-123.47599455387093L-269.6351809075929,-106.75612027855674L-275.8063897255945,-89.61492836873482L-280.88911672730296,-72.12006727780796L-284.86330271131965,-54.340581229860206L-287.7132633811986,-36.34663773364822L-289.4277512441987,-18.20925066350088L-290,5.684341886080802e-14L-289.4277512441987,18.20925066350088L-287.71326338119854,36.34663773364831L-284.86330271131965,54.34058122986028L-280.88911672730296,72.1200672778079L-275.8063897255945,89.61492836873475L-269.63518090759294,106.75612027855665L-262.39984521514566,123.47599455387115L-254.1289372127204,139.70856548949752L-244.8550983955843,155.38977054390915L-234.61492836873478,170.45772316481725L-223.44884040497882,184.85295702712L-211.40090195220927,198.5186607193197L-198.5186607193197,211.40090195220927L-184.85295702712,223.4488404049789L-170.45772316481717,234.61492836873478L-155.38977054390912,244.8550983955843L-139.70856548949746,254.12893721272042L-123.47599455387108,262.39984521514566L-106.7561202785566,269.63518090759294L-89.61492836873474,275.8063897255945L-72.12006727780783,280.88911672730296L-54.340581229860206,284.86330271131965L-36.34663773364824,287.71326338119854L-18.20925066350088,289.4277512441987L0,290L18.20925066350088,289.4277512441987L36.34663773364822,287.71326338119866L54.340581229860206,284.86330271131965L72.12006727780796,280.88911672730296L89.61492836873475,275.8063897255945L106.75612027855665,269.63518090759294L123.47599455387108,262.39984521514566L139.7085654894974,254.12893721272044L155.38977054390898,244.85509839558438L170.4577231648172,234.61492836873478L184.85295702712,223.4488404049789L198.5186607193197,211.40090195220932L211.40090195220932,198.5186607193197L223.4488404049789,184.85295702712L234.61492836873478,170.4577231648172L244.85509839558438,155.38977054390898L254.12893721272042,139.7085654894974L262.39984521514566,123.47599455387108L269.63518090759294,106.7561202785566L275.8063897255945,89.61492836873475L280.88911672730296,72.1200672778079L284.86330271131976,54.34058122986012L287.71326338119866,36.34663773364822L289.4277512441987,18.20925066350088L290,0z" fill="none" stroke="#FFFFFF" stroke-width="4"/></g><g id="labels"><text text-anchor="middle" dominant-baseline="text-before-edge" transform="translate(74.29019713207944,130.45526190754563)"><tspan x="3" y="0.2em" style="font-family: Arial, sans-serif; font-size: 10px; fill: black; font-weight: bold;">11</tspan></text><text text-anchor="middle" dominant-baseline="text-before-edge" transform="translate(181.70258489690647,-70.02356744054934)"><tspan x="3" y="0.2em" style="font-family: Arial, sans-serif; font-size: 10px; fill: black; font-weight: bold;">12</tspan></text><text text-anchor="middle" dominant-baseline="text-before-edge" transform="translate(-199.51010294379375,2.5244508552845417)"><tspan x="3" y="0.2em" style="font-family: Arial, sans-serif; font-size: 10px; fill: black; font-weight: bold;">19</tspan></text><text text-anchor="middle" dominant-baseline="text-before-edge" transform="translate(-16.5121006866925,-85.8260713430795)"><tspan x="3" y="0.2em" style="font-family: Arial, sans-serif; font-size: 10px; fill: black; font-weight: bold;">17</tspan></text><text text-anchor="middle" dominant-baseline="text-before-edge" transform="translate(-157.58705656478145,154.7547566151884)"><tspan x="3" y="0.2em" style="font-family: Arial, sans-serif; font-size: 10px; fill: black; font-weight: bold;">10</tspan></text><text text-anchor="middle" dominant-baseline="text-before-edge" transform="translate(-173.745330795166,-148.00241979194342)"><tspan x="3" y="0.2em" style="font-family: Arial, sans-serif; font-size: 10px; fill: black; font-weight: bold;">18</tspan></text><text text-anchor="middle" dominant-baseline="text-before-edge" transform="translate(102.50993007058166,-207.96372763408056)"><tspan x="3" y="0.2em" style="font-family: Arial, sans-serif; font-size: 10px; fill: black; font-weight: bold;">9</tspan></text><text text-anchor="middle" dominant-baseline="text-before-edge" transform="translate(-73.23761624932101,-219.12213489627163)"><tspan x="3" y="0.2em" style="font-family: Arial, sans-serif; font-size: 10px; fill: black; font-weight: bold;">16</tspan></text><text text-anchor="middle" dominant-baseline="text-before-edge" transform="translate(17.57672184793717,-248.63641230578287)"><tspan x="3" y="0.2em" style="font-family: Arial, sans-serif; font-size: 10px; fill: black; font-weight: bold;">8</tspan></text><text text-anchor="middle" dominant-baseline="text-before-edge" transform="translate(-72.00887080140568,239.30660992134824)"><tspan x="3" y="0.2em" style="font-family: Arial, sans-serif; font-size: 10px; fill: black; font-weight: bold;">13</tspan></text><text text-anchor="middle" dominant-baseline="text-before-edge" transform="translate(-76.09213320762551,36.810115992221846)"><tspan x="3" y="0.2em" style="font-family: Arial, sans-serif; font-size: 10px; fill: black; font-weight: bold;">15</tspan></text><text text-anchor="middle" dominant-baseline="text-before-edge" transform="translate(255.3367804298208,77.70044929520839)"><tspan x="3" y="0.2em" style="font-family: Arial, sans-serif; font-size: 10px; fill: black; font-weight: bold;">14</tspan></text></g></g></svg>